<mxfile host="app.diagrams.net" agent="Mozilla/5.0 (Windows NT 10.0; Win64; x64) AppleWebKit/537.36 (KHTML, like Gecko) Chrome/131.0.0.0 Safari/537.36" version="24.8.6">
  <diagram name="페이지-1" id="zLsIBgSAOSSKBjhhwigZ">
    <mxGraphModel dx="1680" dy="979" grid="0" gridSize="10" guides="1" tooltips="1" connect="1" arrows="1" fold="1" page="0" pageScale="1" pageWidth="827" pageHeight="1169" math="0" shadow="0">
      <root>
        <mxCell id="0" />
        <mxCell id="1" parent="0" />
        <mxCell id="PeD5BdLlFtXoGG5sC_Br-4" value="" style="shape=flexArrow;endArrow=classic;html=1;rounded=1;fontSize=12;startSize=8;endSize=8;curved=1;labelBackgroundColor=none;fontColor=default;strokeColor=#A8201A;fillColor=#EA6B66;" edge="1" parent="1">
          <mxGeometry width="50" height="50" relative="1" as="geometry">
            <mxPoint x="-543" y="83" as="sourcePoint" />
            <mxPoint x="-390" y="83" as="targetPoint" />
          </mxGeometry>
        </mxCell>
        <mxCell id="PeD5BdLlFtXoGG5sC_Br-16" value="NGINX" style="text;html=1;align=center;verticalAlign=middle;whiteSpace=wrap;rounded=0;fontSize=16;labelBackgroundColor=none;fontColor=#143642;" vertex="1" parent="1">
          <mxGeometry x="-306.5" y="-41" width="60" height="30" as="geometry" />
        </mxCell>
        <mxCell id="PeD5BdLlFtXoGG5sC_Br-17" value="Client(Web browser)" style="text;html=1;align=center;verticalAlign=middle;whiteSpace=wrap;rounded=0;fontSize=16;labelBackgroundColor=none;fontColor=#143642;" vertex="1" parent="1">
          <mxGeometry x="-723" y="-25" width="187" height="57" as="geometry" />
        </mxCell>
        <mxCell id="PeD5BdLlFtXoGG5sC_Br-19" value="" style="html=1;shadow=0;dashed=0;align=center;verticalAlign=middle;shape=mxgraph.arrows2.arrow;dy=0.6;dx=40;direction=south;notch=0;labelBackgroundColor=none;fillColor=#e51400;strokeColor=#B20000;fontColor=#ffffff;" vertex="1" parent="1">
          <mxGeometry x="-311.5" y="182" width="70" height="100" as="geometry" />
        </mxCell>
        <mxCell id="PeD5BdLlFtXoGG5sC_Br-20" value="" style="shape=image;verticalLabelPosition=bottom;labelBackgroundColor=none;verticalAlign=top;aspect=fixed;imageAspect=0;image=data:image/png,iVBORw0KGgoAAAANSUhEUgAAAOEAAADhCAMAAAAJbSJIAAAAhFBMVEX///9DoEc5nD6dy55NplCXxZk0mzlAn0Q9nkE1mzoxmjYvmjT7/fvE38Xh7+L9//3v9/DR5tLy+PKEvYa72ryq0atpsWyRxJNHokt6uXxSp1Z/u4He7d6LwY1aql2w1LHV6NVlr2it0q6hzKN0tne32bno8ugmlyxwtHJfrWPJ4sposGpyLAlmAAAIMklEQVR4nO2da5uqLBSGhYqDWNm57DDOoXY1////vc3M3vOGaYCCuLy8v49xTzyhgIsg6Ojo6Ojo6Ojo6MgSzSPfTXDLMBHJ3HcjHLJbEoooed35bogjpnvC0BeMzKa+G+OA8YJj9A8cvrcujsMDQffwZOi7SVYZnTlFMpR/tieO8V4w9AgTs9h306wwXjCc4/cdR7xoQRyvmQDKkAP0OOYEMBNHsoQcx3iVG8BsHPdQ4zh+Q0UBzMSRLsa+G1uGWwCfd9D7rppcfTfXmNE51PX7cVyOfDfZiKlOAGWYWAGK48uaG/p9gdEbkDhO9AMoQzmIOI7Oopzft6NofBynA+MAyjQ9ji/9MgGUwes33xqFTBLFLZoetzhOfKvkMvqoEMCMozg3L47TAa8WQBlGVg2byjmWGgGfgdcvvqXuSJOSI+AzKO83JY6jjbUAZhzFRxPiGA2YzQDKMOw/jvYDKOM7jmli9IxUhtuzo784nraOAphxFBs/cRwPCmcJbcPYysOs49xxAGU4Otbsl16cB1CGhoc643ia1RLAjKPYnuoS7NUWQBnMBrVMc8xpnQGU4cz9Enn6WnMAZWh4cRvH0yx0d4um6+gyjr4CKINxz1Echx4DKOMmjunSawBlaPhqO47xjPgOoAwjVuM4fudNCKAM5vbiOKz1FlQfjuzEMTVbJ6sTSj7Tyn7TpgVQpvIGsuidNC+AMlhU2UA2NFiGoNRuX9a/Gl+X3bGyO+vOgjIiWL+/pkIQbMMTh4L2mdDNByXLtISffgAZ2Qx/VsSi07DXr9yvOR1MvjpePNzoN2FrvCY3DHUbSmby0LvbV5pAZfdbT06zZxuq7sHCdOToaQpS/hiC0Yduu3IEE/n/NdddsMM9R4Y89/7wWHYdgx2yP/4TzR87V4ak4GdsV+4Xh64f4zTU6xCODNms6O9HBj/3/5P7D5tpxdqRISm+v09LfIv0knelk9aX6MaQbZ5cYSiMDQv6/EbnS3RjWJTCH47GimH+/ZdWEt0YiufD7HtoJpjfSW9Dv86/ylEvVVxkZTYusn3Bdbz1UtpXXWVjdAeHBwWX6Wv8aHkyDF5NFEEaThODe1SQhsFprT8swjQMRkxbEahhMNEeM6AaBnPdkR+sYbDQVIRrGAw0H4DgGgYzrcdYyIbBUmfkB20YXTRGftCGQZyoWwnbMBipn/mBGwapcsyAbhhcVWMGeMPgqFCEbxj0nt+itsBQMfK3wfD5tEYrDKPlk5G/FYbBtF+s2A7DIC5eDW+JYbArnNZoi2FwLfpBbY1h4bRGewyLFjQAGQ5VW+ryFzQAGa6Kllh+2eZlEZDh4M+76vp50xqQDPEf1e6W6PA48oMyRERV/yF+bDYsQ8pUxZEeFzRgGSJKVfuw0+wPKjBDxPqqva3DzLAIzRCxT9XW1hdZEZwhwh/KT5EU4RkiUrgp7B/7+5EfoCESypH/fPc5EA1RqHp9935BA6ShYmNYIO3WgGmISKr4pNPvPk2ghpSpRv7dvw3FQA0RTVQj/1XANkTsoBr55wS2IcJn1actQtiGiG9VH7cnsA0RKWr7LxsO2xCFC9UHLjFsQxSqpjWmBwbbEIWql69jxmEbUqwqFDQKYRsiulbd3ExWsA1z3trKUvQvgGKI8KthI8AZIv7sLaJWGCJelLTWGCKinNaAboiMX9cFZ4hEiYLWsAwpS1tuqDHyQzdEbG1arAOaIWIXw1od4AwRNhz54RkirlzQgG6IhFF7IBoiYVIeGKShekEDvCHlacsNNaY1oBve/ly3LhBUQ/2RH6whwsu2G2osaEA3RIVTpK0xRES5oAHdUGtaA7YhIupqssANNUZ+4IYa0xreDAtrDOnVH/v/MqrdGv4qYRXViboYFjJTLGh4rBNV8AQUGVbAUi1oeKz1VVCvbW5eGJI8e0PDY722gpp7pp30+0rFCxo+a+7l103ULOWYoXgrg9e6iYg8tis2qAwlKRZMa2j2eWf1Sx/uSKY5L8PokT//5rt+KaKZb3FkUr4sA7+kD+3wX4P29i3elfAfL/Qre+VA+Vlee9OvI+zS8LcWdDQZsKoF+Blhs/nuZ3LDoBY0KmF4NCk2/13Pmwrt8tHPL8aFoP2+QT3vnyYYH3lleqyo5YrsZhXeqTirXiTL49p3cDKlCyjplz0L+kXzgHu/YFrhAOHpyuoJsS5gvOIh0BZP+XVByQDKXO2c1OwCyksHUOatoXHESGcqUot41cCjWBjZ2zyFfbRsWBypeK0eQJlGxZHypOzJK08YLxoTR0wXbk5ejffezwb8gomZzQDK7Pye7/gFDS+2Aygz9BxHJwGUiRbUXxwxcxRAmXgm/MTRaQBldp8enqsocRxAmVscaxbkifuDciWiRa2nrmJW5fy4ksTb2uJIhfmhY1aoKY6UWL8F1aeOOPJ+zQGUiVyfwcr4e7VDKqvjNI4s3PgJoEzqKo63AKa+5f4yNzjNUx/PAZRxcCIrC3v1j4DPiLdWp3IYaUQAZdKltTjeAmj7YHE7zC2dbm3rNGoHRD0L0xxMDJoVQJl4W3Ghg5KNzVPhXTCpMpVzewZsZgBl5qhsHDk1Xsj1Q9QrNXIwsmpyAGVO5qMjgADKmMaRXOysk9XJ3GDrCWZAAigzHmDNt4M4oADKnLYaXZWGG+2X2BrI5KLaLxwe4AVQ5vi0q2Ju8rZsQxmvcNHIwTDYAMqM8uMIPIAyk+TBkZIEegBljpk1OcxaEECZ6D6OtwD6ngV1wWjzt6tS8eFvmt4tk4TQWwDXEJ4By/KCiL2tWs1kumhjADs6Ojo6Ojp88x+RxqPrW3o8OwAAAABJRU5ErkJggg==;fillColor=#FAE5C7;strokeColor=#0F8B8D;fontColor=#143642;" vertex="1" parent="1">
          <mxGeometry x="-349" y="11" width="145" height="145" as="geometry" />
        </mxCell>
        <mxCell id="PeD5BdLlFtXoGG5sC_Br-22" value="" style="shape=image;verticalLabelPosition=bottom;labelBackgroundColor=none;verticalAlign=top;aspect=fixed;imageAspect=0;image=data:image/png,iVBORw0KGgoAAAANSUhEUgAAATQAAACkCAMAAAAuTiJaAAAAk1BMVEX///9hgrlLS0tKSUZbfrdggblXe7ZihL1KR0JhgLZYfLZKSUdUebVeeaihtNTj6fLX3+z19/ppiLxQWGfs8PZ7lcNcdaBNUVe0wtxujL51kcGKocm+yuDf5fDJ0+WRpsxTYHdWaIeYrM+jtdSvvtlYbZFOU1zP2OhUY31RWmuEnMZcdqLDzuNZb5RXaYlJRDtIcbFElVcGAAAPIUlEQVR4nO1d6WKiOhQeagKKcYFCFdcOOnWG2rnz/k93E5TkJITNhrqU79dUyBn5PHsS8uNHhw4dOnTo0KFDhw4dOnS4a3ieF2Sg//au/X1uEV4wmW5W8128DUPft22Xws6Q/uG6vh8m2/F+fjysJ8E3ZtELpsd9nCx8C5GUG4QwtgqBMULsLmIjy18s4/lm+q3YmxzmcRJRqmxEibJKmCrgz2IE2jbBURLPD5NrP0/LmGx2S58QqlWNmdKzx8gjJNruH5I6bz2PfeajkAm2VDDLtRfj1eRxDHZyjCNM2qELACOXWOF4E1z7eT+N9XxpUd9d5uKNEoeRTfzl6n6Ndb1PbGLIfTUCVTn3HokLjlvUkgOrBWqrthVv7sjHrfcL176ChuWIs1E4vwuFm8Y+uT5hGbBLot362pyUYxpjcj2b1IPyZt0ub+sxvgGj1II6uP0N2mkwXxD3Nhk7Adnh6rbiwmFp3zRjKagdxNNrM5XB21s358j0wIhEN6Fu663tXpuMBqDqNr52oXUI7ftQMgGa9y6vGUyPEbl5T6YDIuHhWpRZ9l1SxoBJtLkGZf49ubI8sB19tbZtfPvaT/1pYBJ+ZQYyDe/Tl6nAJPmqSBosH4MyBkTGX5K37a/YJmsBCK9ap2wa3b8zk0FdW8u1fPw4limA7H2LlB3wfacZhXD91pQtJtd+uNaAW1K29Z1nsxVwwxayj/n91kz1gFzjFcLycU0zAyY7o5QFUZPcDHO09HRtybcTg5nuFDfizPLPMPxMDI5jWQMBw9KRb8yxbZqZJhEjt4aLB+fl9e2pz/Hfs2NWvoWRof7kvKE7i8RQs0/kvM/6veGTQO+nadLoT26kz7ZryBna8qGe0ejhvPQhY4y0F5PyT8DkaICzprUmEmni1GidOug9KegN2gg15NMVfFM9oyFIdPbmJtNh51UlbTgzb50Mn9W1fXMDIyJsm4wDeNDPKdprO6R9krVVc84wEsMjg9bj/BWK1us9zSiefrVEGiaf6IMfLnDkaMmHeyZdmvPMo8Dw58h0gqYAuxd3PYJLmmcwDhgMnnjAOeu/OM03HzT97/wLawPPv+Sr2aLsXZmMAy+ZSxsaz2h1QOFlpG0vemZXFCIm44BwaW1ktBrYF1XvK9kjYbHLS4Bt9pLX8WFLSPAJvFVZ76eRphFnZeW582corBOW6ziPAho0d5YNviQYBApn1nqSx3p6mMcRXM2HEyFC3DedbubxgoCWnKuRphHHnNmpMp9xlyZX64M8HIY8aZo7ywc3d2sL2bZwiY0Hq4jT4Za0jb1jmN2Ho5Lb5kIc5YwmGAwgp+2dP6GXnV/9Xh5Pb6+/Rgptzk/dnfrBH+lgFDflTM3QKiQcrTPHbnm9uznrf5U40Ysa5XLajLs/DisThtprlNjndwdqLEhZKkAHD+lgqbapBU/1DG5FQeaFp7BBKhpSwclnVYrLFN35las4YUBw3gqpGPZfpSeoSVk2mErHi2ak7dTISSr7TGH6mJX5zcFuIq5IlZ5YQEiNtwS9GciBR0XkF4mnrNmNyqkglyyQ6kGpC0oqb1tgFsgqnax36vs6s0LSWIvjvch4UwzfuME4Hw1Je+qP6PesxdYZY1XRyhx3BqZDaFx5G2t91BLHvGqJKrEWByxIdej9zsKB87spaWxslReB8HLr26HjnmZQ3VeILVvEAS9LJBSlWhO5UVkmjhYC/6UhTahbFjv7rMUhsjfqvlOoTz7KSCt2fgUYvjlSF7oK+T6YOxec/ctyUUJC6Zc4uhYRhW78j2SIYB7CEkDwC66LxdlM094ZRpyc3s/R+wmMDkc84+yModQR56rmlNpxxlO/D/WReaX6c6EqZTT6CscNK0psw0UQnmuBvlAItJWI1kfqL0G2LYlzLaBuabMcK3rSl/KvAaitzrAGH38gQefbufPr/eUCRGTuZU2m0W/BOHOaqNpHn6HpTrjCxmIpSCCowAtY5koVBchEUk2rJQ58LhQAdridl+xz1vngnzov4MlHCj99Ma8gInNmxRgGjLSZ7tad0xtrCm3AjOzvoAIvXREHJhLzgLSpLSVAUbG4hH+Pd32LQ3j3/ggKgU/+4Sj8CNYdXpo98aEYzESwv+26oSA/yQsdt9LLAv2zHzHoE2+KNI3aIxD3Q9FqFzQXuBIWtTh4lj+cKV+Y05FZY5a5pO79DN6iAz+FCNfDt/Tvmi2iicY6RRxYq/UVICAGOauUHmNLssea4nactFfQ4oB38wf8I1eaDggcjgUnGIZgXoG36ERmAu88yUT1ynbNHJKtd9ypUJCMbP+JfydSqwL8XpEk7lgmjpuniANSn3uk8e4n0n7LpAF+xLyC85Mb94cYLiLGaWTNAnSZd2lIWJfq8KB5Jr74t2TjkApXmrCKy8RlLRHhZyQzFK6rr8waA9JSOgE/wvkBdQQfqhED1VvtF+U4gzmeEgek+iwS3ASk4KYJ83ViSKiKA10S/uGLYjLZAwqrVRwt4CNVIvA3iLI8xs60Mk8RA0wUlSDX4LBgtpK7aotEzQOhZiOZHch5acoK/VauMQDyvox3oSeyGfLsDXp3+cpT/z39IAsMMPqOdD+FqHWzmWhgPcUI8nEAqOhEnZYDMtf/RBzYS2y44iZq3lCc8p9hUCLzGCFaYZIZgkCnzBqDivWkL7zFAVy+MG4YkkVEzWTWaFVoF2CAGaaNchVqzdwWviqBvgrmZaxAFeKOZeI47woFGd413l25cqoIAD/C5YMkD/wUL7nYUtUh1NIij1PjAJx+WNSJA0TKssvEcXfH9URevAGqoJEsRdjzyfIEP9DlPyveSx7J7yR15o01s5WADMVxw7opICAOyNYpfB21R2iCijioktxNCD2RzVDr3U9XuGM66SBocWizWODSRFM8Y7JWzpEnDQYQxQfBDuwOrFE6SOoKyn2qxzCsKFHPhuKy7wH0RDJDXgXl4oCYVxgOZH60cQD8FLxtImReSBoobRTHTUAS4xFgW3vJ7IAvpfYIJqyCEnGi6fqmyacs4LOBdz8NeFXqo5HG5WtaHJY2YlxKGogD8CIiczAudt2COADNO5HigCJuJYnjj6dvcQifDRP69Mm5op1cfEWLA+a7mohRi7RNjjQQB3boPA+NkesuoYucEtjDlrI5WO7TAGHXEifsW9iRZIYan30G18zzAKB5ogoTfq8PrFPTNqkVCPIpB8iyMg3yE+U9gp6PATfy9Dyoz5k9ggmrrFBi4qTC2BOkAzuSzFD4bKXF8cw181zeC+c3qx0HZlypSZ2KPVBJqzHDlM64wZa4HAeEglM1riuOP4iwI8kMeRUkJfTO6I1zdvZo2Krb4hCeAESMWsmtGtGkFlcRlm7JYltQ7tNCoY446BKBHRW2ODIMPp7BCvDMGOu3OEZKi4Oh3tyKWpJXrDRIH5KRVLjYFsYBJJXkNTgDa20LWhzDP68p/jzPhnBSJeu9AX7exfBaLQ5LrlFKoHZr7CpPOIlchRu5HgD/rVWjLFE2YhW1OMRE5nCom7/rZ3WQ4GcIUn9xI7BOtcVhSQ65DErOAVcea3He1Fi46QLGAVdawFYmjj/IT11dXb2gpS/u1iXBI433Am0TETFqNiGVjLN8GYi3yl5rUrjpAuRltFAob7p7K0uJQ3A1n3ShfMa8L5pIula3tsWB8y2OapXJIE8QFa808ILjVjyjW9QSBzkvLRTKxeF8twCs5oPfq3AJVsrE0wvgh3v35i2Omj3IH+qSIdB1Xcdjjm2ySN+VLMiNd+dLOyWU8DG7hdSanZSJy5FT1OLIY9h/HZQnrMC4Yb77N3+nW3fhkDJlKeLAnCAAtYcLrhRdkMXtS8WdH+RDl2QVL8Ea9vq915He+fV0CRn4KYAnyD6qsbwpA9QUOPummXJpDJAr1hHn/P4v29ypb3WzBRgcT7Pn3y+WVIniQS+7ClscXCoMyXwrKWeyZsLBAPupMA5cwJEKaXK9zoARB3Rp0GeLGwYDK79CeSAk6D6EUvN3Vi8+FMDQVfFPg3x7sjFAHGi6G1Qy3xeNd7cu2dReOqTu/HoKMC0Cuq4mtm8aElfc4jCKBiutpPoTKKiJ7Zu2GXFgNV+L+1fqLNgEEA9kF8+GXwJkZjeoaEu3uVPKbvh6k6x6hI7bxCsjQIH6md2gI2WtRiuov6LvjGxhH4gDJrbxQ3GfUTSevamrOEyi9oI+jrPxwNWxZuOAusiqCUSWP2wvDlzwoivvPFK/2PbiL2JGnK4dYRpN96ukOO3FtqfZyvbAxPZNbEaco++xGUWt5Qg5nOp2my9sN7Ll1Yy4wtV85nDpGxNCIzS1ANCWfq+++yLYjfctnpGbYrkVOK9Zvd1v5R0wl29h/6FZjHYr0NXgJnHxyxIYpo/+TsMCoE+9Rq3hq9MeBJ99idrxG7Jmf/rFc9+PtaZb1/WsfSu/hivnxmvhcKsxtA0gy9ALqdeNXj5610CRsdePNnvN7R3DbdpBK8U3eKEye9dc9WsLGuGC9xzeG3Dt2fTamFoPbqIoauFMAi95aGUjl7Y1KrC6u3PvagNZrZ28FYQPWsCTZZsHIT2ksiGr5XPxgofzbJjE7Z+3dfAfykbJ4msO+9yjRzmiBruW8dysCEH8GK7NRbuvPMF4ktzJ2c4lQCT+6tOL18v7pg2R7TUOfJ4kd2ukGLlxy6cGFmK9vUvasOt+uWFC0JBwb5GUUra/9gH23ty/I+eGEVl8WZJRikNyJ4fLYhdtr3luvYxgb928d8PIjubXdGUaTLfkhnmjjLnj21EygGNi32RZShMMtPzqk+rrw1sl7o3pG9UxnByvHS4rEFDe8sdXXAvIRsvNjTN2gneIMbk6b9QoiT++XavUYDKnhuq2dSxqJWE0H8PL1Y3FyjrwDrsFDVpfzRtGlLBwP70Lo9TCO+xDStxXxQaWWaDkngnjWK9in7AzkFpUOsxcGFmMj9dqXrQBb7rahojmv8j0knFKF+XLCuPVTSavn4Y32eyXkcVO3jJisMilwcZabOeb4AEMshRecFjtlj478YxmdM2NlmoWctlpZtFyt5o+PF0ygslhtY+XC4tt+mEEuudXTUAa2V/px/QyOxyD2P5iGe9XU/UUkm8Hb7I+bFbz3Xi7TZJwsVhE2UnuEf0jTJLtdrebHzfT9TfTqw4dOnTo0KFDhw4dOnTo0KFDh3bxPxNVR4lyrijPAAAAAElFTkSuQmCC;fillColor=#FAE5C7;strokeColor=#0F8B8D;fontColor=#143642;" vertex="1" parent="1">
          <mxGeometry x="-398.58" y="338" width="244.15" height="130" as="geometry" />
        </mxCell>
        <mxCell id="PeD5BdLlFtXoGG5sC_Br-26" value="" style="html=1;shadow=0;dashed=0;align=center;verticalAlign=middle;shape=mxgraph.arrows2.arrow;dy=0.6;dx=40;direction=south;notch=0;labelBackgroundColor=none;fillColor=#e51400;strokeColor=#B20000;fontColor=#ffffff;" vertex="1" parent="1">
          <mxGeometry x="-311.5" y="496" width="70" height="100" as="geometry" />
        </mxCell>
        <mxCell id="PeD5BdLlFtXoGG5sC_Br-27" value="" style="sketch=0;outlineConnect=0;strokeColor=none;dashed=0;verticalLabelPosition=bottom;verticalAlign=top;align=center;html=1;fontSize=12;fontStyle=0;aspect=fixed;pointerEvents=1;shape=mxgraph.aws4.rds_mysql_instance;labelBackgroundColor=none;fillColor=#FAE5C7;fontColor=#143642;" vertex="1" parent="1">
          <mxGeometry x="-349" y="650" width="139" height="139" as="geometry" />
        </mxCell>
        <mxCell id="PeD5BdLlFtXoGG5sC_Br-29" value="" style="image;sketch=0;aspect=fixed;html=1;points=[];align=center;fontSize=12;image=img/lib/mscae/WebAppWordPress.svg;labelBackgroundColor=none;fillColor=#FAE5C7;strokeColor=#0F8B8D;fontColor=#143642;" vertex="1" parent="1">
          <mxGeometry x="-328.93" y="965" width="104.86" height="107" as="geometry" />
        </mxCell>
        <mxCell id="PeD5BdLlFtXoGG5sC_Br-30" value="" style="html=1;shadow=0;dashed=0;align=center;verticalAlign=middle;shape=mxgraph.arrows2.arrow;dy=0.6;dx=40;direction=south;notch=0;labelBackgroundColor=none;fillColor=#e51400;strokeColor=#B20000;fontColor=#ffffff;" vertex="1" parent="1">
          <mxGeometry x="-311.5" y="824" width="70" height="100" as="geometry" />
        </mxCell>
        <mxCell id="PeD5BdLlFtXoGG5sC_Br-31" value="Wordpress" style="text;html=1;align=center;verticalAlign=middle;whiteSpace=wrap;rounded=0;fontSize=16;labelBackgroundColor=none;fontColor=#143642;" vertex="1" parent="1">
          <mxGeometry x="-332" y="928" width="95" height="30" as="geometry" />
        </mxCell>
        <mxCell id="PeD5BdLlFtXoGG5sC_Br-32" value="HTTP&amp;nbsp;&lt;span style=&quot;background-color: initial;&quot;&gt;요청&lt;/span&gt;" style="text;html=1;align=center;verticalAlign=middle;whiteSpace=wrap;rounded=0;fontSize=16;labelBackgroundColor=none;fontColor=#143642;" vertex="1" parent="1">
          <mxGeometry x="-525" y="121.5" width="101" height="68.5" as="geometry" />
        </mxCell>
        <mxCell id="PeD5BdLlFtXoGG5sC_Br-33" value="PHP 요청" style="text;html=1;align=center;verticalAlign=middle;whiteSpace=wrap;rounded=0;fontSize=16;labelBackgroundColor=none;fontColor=#143642;" vertex="1" parent="1">
          <mxGeometry x="-204" y="217" width="121" height="30" as="geometry" />
        </mxCell>
        <mxCell id="PeD5BdLlFtXoGG5sC_Br-34" value="DB 요청" style="text;html=1;align=center;verticalAlign=middle;whiteSpace=wrap;rounded=0;fontSize=16;labelBackgroundColor=none;fontColor=#143642;" vertex="1" parent="1">
          <mxGeometry x="-202" y="531" width="121" height="30" as="geometry" />
        </mxCell>
        <mxCell id="PeD5BdLlFtXoGG5sC_Br-35" value="데이터 출력" style="text;html=1;align=center;verticalAlign=middle;whiteSpace=wrap;rounded=0;fontSize=16;labelBackgroundColor=none;fontColor=#143642;" vertex="1" parent="1">
          <mxGeometry x="-181" y="859" width="121" height="30" as="geometry" />
        </mxCell>
        <mxCell id="PeD5BdLlFtXoGG5sC_Br-38" value="WSL(Ubuntu)" style="swimlane;fontStyle=0;childLayout=stackLayout;horizontal=1;startSize=30;horizontalStack=0;resizeParent=1;resizeParentMax=0;resizeLast=0;collapsible=1;marginBottom=0;whiteSpace=wrap;html=1;strokeColor=#0F8B8D;fontColor=#143642;fillColor=#FAE5C7;labelBackgroundColor=none;" vertex="1" parent="1">
          <mxGeometry x="-335" y="1386" width="140" height="60" as="geometry" />
        </mxCell>
        <mxCell id="PeD5BdLlFtXoGG5sC_Br-39" value="Window Host OS" style="text;strokeColor=none;fillColor=none;align=left;verticalAlign=middle;spacingLeft=4;spacingRight=4;overflow=hidden;points=[[0,0.5],[1,0.5]];portConstraint=eastwest;rotatable=0;whiteSpace=wrap;html=1;fontColor=#143642;labelBackgroundColor=none;" vertex="1" parent="PeD5BdLlFtXoGG5sC_Br-38">
          <mxGeometry y="30" width="140" height="30" as="geometry" />
        </mxCell>
        <mxCell id="PeD5BdLlFtXoGG5sC_Br-42" value="" style="html=1;shadow=0;dashed=0;align=center;verticalAlign=middle;shape=mxgraph.arrows2.arrow;dy=0.6;dx=40;direction=north;notch=0;strokeColor=#0F8B8D;fontColor=#143642;fillColor=#FAE5C7;labelBackgroundColor=none;" vertex="1" parent="1">
          <mxGeometry x="-309" y="1103" width="70" height="100" as="geometry" />
        </mxCell>
        <mxCell id="PeD5BdLlFtXoGG5sC_Br-43" value="" style="shape=image;html=1;verticalAlign=top;verticalLabelPosition=bottom;labelBackgroundColor=#ffffff;imageAspect=0;aspect=fixed;image=https://cdn1.iconfinder.com/data/icons/operating-system-flat-1/30/ubuntu-128.png;strokeColor=#0F8B8D;fontColor=#143642;fillColor=#FAE5C7;" vertex="1" parent="1">
          <mxGeometry x="-340.5" y="1253" width="128" height="128" as="geometry" />
        </mxCell>
        <mxCell id="PeD5BdLlFtXoGG5sC_Br-44" value="" style="shape=mxgraph.cisco.computers_and_peripherals.web_browser;html=1;pointerEvents=1;dashed=0;fillColor=#036897;strokeColor=#ffffff;strokeWidth=2;verticalLabelPosition=bottom;verticalAlign=top;align=center;outlineConnect=0;fontColor=#143642;" vertex="1" parent="1">
          <mxGeometry x="-701" y="47" width="130" height="87.5" as="geometry" />
        </mxCell>
      </root>
    </mxGraphModel>
  </diagram>
</mxfile>
